# xmcd
#
# Track frame offsets: 
#        150
#        10205
#        29808
#        45648
#        75244
#        86466
#        103383
#        118071
#        135765
#        157203
#        169162
#        182888
#        201033
#        214680
#        232040
#        246391
#        262343
#        280067
#        293612
#        310460
#        326082
#        343052
#
# Disc length: 4759 seconds
#
# Revision: 0
# Processed by: cddbd v1.5.2PL0 Copyright (c) Steve Scherf et al.
# Submitted via: ExactAudioCopy v1.3
#
DISCID=4c129516
DTITLE=Various Artist - Akella Presents - vol. 158 - Rockin' Rollers 
DTITLE=Blues  CD1
DYEAR=2018
DGENRE=Rock and Roll
TTITLE0=Johnny And The Headhunters - Shake Your Money Maker
TTITLE1=The Cadillac Kings - Five Wont Getcha Ten
TTITLE2=Howard 'Guitar' Luedtke and Blue Max - When The Blues Puts Its H
TTITLE2=old On You
TTITLE3=Tomcat Blake - Goin' Back South
TTITLE4=Jay Willie Blues Band - Barefootin'
TTITLE5=RoosterHouse Gumbo Band - Red's Brunettes And Blondes
TTITLE6=Blues 'N' Trouble - What's The Matter
TTITLE7=Ghost Riders - G.R.I.T.S.
TTITLE8=Peter McGraw - I Think I Lost My Mojo
TTITLE9=Dean Hall - Dad's In Jail
TTITLE10=Sonny Landreth - The Road We're On
TTITLE11=Jarekus Singleton - Come Wit Me
TTITLE12=Ghost Town Blues Band - Big Shirley
TTITLE13=Jimmy Morello - Leave Me Alone
TTITLE14=Brother Bones Blues Band - Short Stuff
TTITLE15=Ana and Milton Popovic - Baby What's Wrong
TTITLE16=The Maynard Brothers Band - By And By
TTITLE17=Wentus Blues Band - Future Blues
TTITLE18=Rick Vito - Yon Can Run
TTITLE19=Mondo Hepted - Wombat Baby
TTITLE20=Junkyardmen - Tearsss
TTITLE21=Jimmy Vaughan - Just A Little Bit
EXTD=
EXTT0=
EXTT1=
EXTT2=
EXTT3=
EXTT4=
EXTT5=
EXTT6=
EXTT7=
EXTT8=
EXTT9=
EXTT10=
EXTT11=
EXTT12=
EXTT13=
EXTT14=
EXTT15=
EXTT16=
EXTT17=
EXTT18=
EXTT19=
EXTT20=
EXTT21=
PLAYORDER=
